<svg xmlns="http://www.w3.org/2000/svg" viewBox="0 0 25 31" width="25" height="31">
    <defs>
        <style>
            .\32 b4f6556-8434-469b-8b4e-ae33d478f9ab {
                fill: #4f3b3b;
            }
            .\39 3fc1c1c-2dc6-4857-9d29-8c372b3c32d4 {
                fill: #a9ffc3;
            }
        </style>
    </defs>
    <title>little-tree</title>
    <g id="82956d3b-c764-4c42-a9d2-75da0f73e08e" data-name="2">
        <path class="2b4f6556-8434-469b-8b4e-ae33d478f9ab svg-elem-1"
            d="M26.5,69.5h-4c0-12.71.89-23,2-23S26.5,56.79,26.5,69.5Z" transform="translate(-12 -39)"></path>
    </g>
    <g id="445b8f50-751f-4666-a111-21a3d3ce5491" data-name="1">
    <!-- <animate attributeName="opacity" from="0.5" to="1" begin="0s" dur="2s" repeatCount="1" fill="freeze"></animate> -->
        <!-- <animateTransform attributeName="transform" begin="0s" dur="10s"  type="scale" values="0.8;1;0.8" repeatCount="indefinite"/> -->
        <path class="93fc1c1c-2dc6-4857-9d29-8c372b3c32d4 svg-elem-5" d="M17.5,49.5a5,5,0,0,1,0-10h14a5,5,0,0,1,0,10Z"
            transform="translate(-12 -39)"></path>
        <path class="93fc1c1c-2dc6-4857-9d29-8c372b3c32d4 svg-elem-6"
            d="M31.5,40a4.5,4.5,0,0,1,0,9h-14a4.5,4.5,0,0,1,0-9h14m0-1h-14a5.5,5.5,0,0,0,0,11h14a5.5,5.5,0,0,0,0-11Z"
            transform="translate(-12 -39)"></path>
    </g>
</svg>